{
	"asset":{
		"generator":"Khronos glTF Blender I/O v4.4.56",
		"version":"2.0"
	},
	"scene":0,
	"scenes":[
		{
			"name":"Scene",
			"nodes":[
				12
			]
		}
	],
	"nodes":[
		{
			"name":"magazine",
			"rotation":[
				0,
				0,
				-0.7071067690849304,
				0.7071067690849304
			],
			"translation":[
				0.11999999731779099,
				0.04999999701976776,
				0
			]
		},
		{
			"name":"bolt",
			"translation":[
				-0.05999999865889549,
				0.3799999952316284,
				0
			]
		},
		{
			"children":[
				0,
				1
			],
			"name":"root",
			"rotation":[
				-0.5,
				-0.5,
				-0.5,
				0.5
			]
		},
		{
			"mesh":0,
			"name":"Barrel",
			"skin":0
		},
		{
			"mesh":1,
			"name":"Bolt",
			"skin":0
		},
		{
			"mesh":2,
			"name":"Grip",
			"skin":0
		},
		{
			"mesh":3,
			"name":"Handguard",
			"skin":0
		},
		{
			"mesh":4,
			"name":"Magazine",
			"skin":0
		},
		{
			"mesh":5,
			"name":"Muzzle",
			"skin":0
		},
		{
			"mesh":6,
			"name":"Optic",
			"skin":0
		},
		{
			"mesh":7,
			"name":"Receiver",
			"skin":0
		},
		{
			"mesh":8,
			"name":"Stock",
			"skin":0
		},
		{
			"children":[
				3,
				4,
				5,
				6,
				7,
				8,
				9,
				10,
				11,
				2
			],
			"name":"AssaultRifle_Rig"
		}
	],
	"animations":[
		{
			"channels":[
				{
					"sampler":0,
					"target":{
						"node":2,
						"path":"translation"
					}
				},
				{
					"sampler":1,
					"target":{
						"node":2,
						"path":"rotation"
					}
				},
				{
					"sampler":2,
					"target":{
						"node":2,
						"path":"scale"
					}
				},
				{
					"sampler":3,
					"target":{
						"node":0,
						"path":"translation"
					}
				},
				{
					"sampler":4,
					"target":{
						"node":0,
						"path":"rotation"
					}
				},
				{
					"sampler":5,
					"target":{
						"node":0,
						"path":"scale"
					}
				},
				{
					"sampler":6,
					"target":{
						"node":1,
						"path":"translation"
					}
				},
				{
					"sampler":7,
					"target":{
						"node":1,
						"path":"rotation"
					}
				},
				{
					"sampler":8,
					"target":{
						"node":1,
						"path":"scale"
					}
				}
			],
			"name":"ads_in",
			"samplers":[
				{
					"input":48,
					"interpolation":"LINEAR",
					"output":49
				},
				{
					"input":48,
					"interpolation":"LINEAR",
					"output":50
				},
				{
					"input":51,
					"interpolation":"STEP",
					"output":52
				},
				{
					"input":51,
					"interpolation":"STEP",
					"output":53
				},
				{
					"input":51,
					"interpolation":"STEP",
					"output":54
				},
				{
					"input":51,
					"interpolation":"STEP",
					"output":55
				},
				{
					"input":51,
					"interpolation":"STEP",
					"output":56
				},
				{
					"input":51,
					"interpolation":"STEP",
					"output":57
				},
				{
					"input":51,
					"interpolation":"STEP",
					"output":58
				}
			]
		},
		{
			"channels":[
				{
					"sampler":0,
					"target":{
						"node":2,
						"path":"translation"
					}
				},
				{
					"sampler":1,
					"target":{
						"node":2,
						"path":"rotation"
					}
				},
				{
					"sampler":2,
					"target":{
						"node":2,
						"path":"scale"
					}
				},
				{
					"sampler":3,
					"target":{
						"node":0,
						"path":"translation"
					}
				},
				{
					"sampler":4,
					"target":{
						"node":0,
						"path":"rotation"
					}
				},
				{
					"sampler":5,
					"target":{
						"node":0,
						"path":"scale"
					}
				},
				{
					"sampler":6,
					"target":{
						"node":1,
						"path":"translation"
					}
				},
				{
					"sampler":7,
					"target":{
						"node":1,
						"path":"rotation"
					}
				},
				{
					"sampler":8,
					"target":{
						"node":1,
						"path":"scale"
					}
				}
			],
			"name":"ads_out",
			"samplers":[
				{
					"input":48,
					"interpolation":"LINEAR",
					"output":59
				},
				{
					"input":48,
					"interpolation":"LINEAR",
					"output":60
				},
				{
					"input":51,
					"interpolation":"STEP",
					"output":61
				},
				{
					"input":51,
					"interpolation":"STEP",
					"output":62
				},
				{
					"input":51,
					"interpolation":"STEP",
					"output":63
				},
				{
					"input":51,
					"interpolation":"STEP",
					"output":64
				},
				{
					"input":51,
					"interpolation":"STEP",
					"output":65
				},
				{
					"input":51,
					"interpolation":"STEP",
					"output":66
				},
				{
					"input":51,
					"interpolation":"STEP",
					"output":67
				}
			]
		},
		{
			"channels":[
				{
					"sampler":0,
					"target":{
						"node":2,
						"path":"translation"
					}
				},
				{
					"sampler":1,
					"target":{
						"node":2,
						"path":"rotation"
					}
				},
				{
					"sampler":2,
					"target":{
						"node":2,
						"path":"scale"
					}
				},
				{
					"sampler":3,
					"target":{
						"node":0,
						"path":"translation"
					}
				},
				{
					"sampler":4,
					"target":{
						"node":0,
						"path":"rotation"
					}
				},
				{
					"sampler":5,
					"target":{
						"node":0,
						"path":"scale"
					}
				},
				{
					"sampler":6,
					"target":{
						"node":1,
						"path":"translation"
					}
				},
				{
					"sampler":7,
					"target":{
						"node":1,
						"path":"rotation"
					}
				},
				{
					"sampler":8,
					"target":{
						"node":1,
						"path":"scale"
					}
				}
			],
			"name":"idle",
			"samplers":[
				{
					"input":68,
					"interpolation":"STEP",
					"output":69
				},
				{
					"input":68,
					"interpolation":"STEP",
					"output":70
				},
				{
					"input":68,
					"interpolation":"STEP",
					"output":71
				},
				{
					"input":68,
					"interpolation":"STEP",
					"output":72
				},
				{
					"input":68,
					"interpolation":"STEP",
					"output":73
				},
				{
					"input":68,
					"interpolation":"STEP",
					"output":74
				},
				{
					"input":68,
					"interpolation":"STEP",
					"output":75
				},
				{
					"input":68,
					"interpolation":"STEP",
					"output":76
				},
				{
					"input":68,
					"interpolation":"STEP",
					"output":77
				}
			]
		},
		{
			"channels":[
				{
					"sampler":0,
					"target":{
						"node":2,
						"path":"translation"
					}
				},
				{
					"sampler":1,
					"target":{
						"node":2,
						"path":"rotation"
					}
				},
				{
					"sampler":2,
					"target":{
						"node":2,
						"path":"scale"
					}
				},
				{
					"sampler":3,
					"target":{
						"node":0,
						"path":"translation"
					}
				},
				{
					"sampler":4,
					"target":{
						"node":0,
						"path":"rotation"
					}
				},
				{
					"sampler":5,
					"target":{
						"node":0,
						"path":"scale"
					}
				},
				{
					"sampler":6,
					"target":{
						"node":1,
						"path":"translation"
					}
				},
				{
					"sampler":7,
					"target":{
						"node":1,
						"path":"rotation"
					}
				},
				{
					"sampler":8,
					"target":{
						"node":1,
						"path":"scale"
					}
				}
			],
			"name":"reload",
			"samplers":[
				{
					"input":78,
					"interpolation":"LINEAR",
					"output":79
				},
				{
					"input":78,
					"interpolation":"LINEAR",
					"output":80
				},
				{
					"input":81,
					"interpolation":"STEP",
					"output":82
				},
				{
					"input":78,
					"interpolation":"LINEAR",
					"output":83
				},
				{
					"input":81,
					"interpolation":"STEP",
					"output":84
				},
				{
					"input":81,
					"interpolation":"STEP",
					"output":85
				},
				{
					"input":78,
					"interpolation":"LINEAR",
					"output":86
				},
				{
					"input":81,
					"interpolation":"STEP",
					"output":87
				},
				{
					"input":81,
					"interpolation":"STEP",
					"output":88
				}
			]
		}
	],
	"materials":[
		{
			"doubleSided":true,
			"name":"Rifle Grey",
			"pbrMetallicRoughness":{
				"baseColorFactor":[
					0.1599999964237213,
					0.18000000715255737,
					0.20000000298023224,
					1
				],
				"metallicFactor":0.05000000074505806,
				"roughnessFactor":0.7799999713897705
			}
		},
		{
			"doubleSided":true,
			"name":"Rifle Dark",
			"pbrMetallicRoughness":{
				"baseColorFactor":[
					0.054999999701976776,
					0.06499999761581421,
					0.07500000298023224,
					1
				],
				"metallicFactor":0.05000000074505806,
				"roughnessFactor":0.7799999713897705
			}
		}
	],
	"meshes":[
		{
			"name":"Cylinder",
			"primitives":[
				{
					"attributes":{
						"POSITION":0,
						"NORMAL":1,
						"TEXCOORD_0":2,
						"JOINTS_0":3,
						"WEIGHTS_0":4
					},
					"indices":5,
					"material":0
				}
			]
		},
		{
			"name":"Cube.006",
			"primitives":[
				{
					"attributes":{
						"POSITION":7,
						"NORMAL":8,
						"TEXCOORD_0":9,
						"JOINTS_0":10,
						"WEIGHTS_0":11
					},
					"indices":12,
					"material":1
				}
			]
		},
		{
			"name":"Cube.003",
			"primitives":[
				{
					"attributes":{
						"POSITION":13,
						"NORMAL":14,
						"TEXCOORD_0":15,
						"JOINTS_0":16,
						"WEIGHTS_0":17
					},
					"indices":12,
					"material":1
				}
			]
		},
		{
			"name":"Cube.001",
			"primitives":[
				{
					"attributes":{
						"POSITION":18,
						"NORMAL":19,
						"TEXCOORD_0":20,
						"JOINTS_0":21,
						"WEIGHTS_0":22
					},
					"indices":12,
					"material":1
				}
			]
		},
		{
			"name":"Cube.004",
			"primitives":[
				{
					"attributes":{
						"POSITION":23,
						"NORMAL":24,
						"TEXCOORD_0":25,
						"JOINTS_0":26,
						"WEIGHTS_0":27
					},
					"indices":12,
					"material":0
				}
			]
		},
		{
			"name":"Cylinder.001",
			"primitives":[
				{
					"attributes":{
						"POSITION":28,
						"NORMAL":29,
						"TEXCOORD_0":30,
						"JOINTS_0":31,
						"WEIGHTS_0":32
					},
					"indices":5,
					"material":1
				}
			]
		},
		{
			"name":"Cube.005",
			"primitives":[
				{
					"attributes":{
						"POSITION":33,
						"NORMAL":34,
						"TEXCOORD_0":35,
						"JOINTS_0":36,
						"WEIGHTS_0":37
					},
					"indices":12,
					"material":0
				}
			]
		},
		{
			"name":"Cube",
			"primitives":[
				{
					"attributes":{
						"POSITION":38,
						"NORMAL":39,
						"TEXCOORD_0":40,
						"JOINTS_0":41,
						"WEIGHTS_0":42
					},
					"indices":12,
					"material":0
				}
			]
		},
		{
			"name":"Cube.002",
			"primitives":[
				{
					"attributes":{
						"POSITION":43,
						"NORMAL":44,
						"TEXCOORD_0":45,
						"JOINTS_0":46,
						"WEIGHTS_0":47
					},
					"indices":12,
					"material":1
				}
			]
		}
	],
	"skins":[
		{
			"inverseBindMatrices":6,
			"joints":[
				2,
				0,
				1
			],
			"name":"AssaultRifle_Rig"
		}
	],
	"accessors":[
		{
			"bufferView":0,
			"componentType":5126,
			"count":96,
			"max":[
				1.4500000476837158,
				0.03500000014901161,
				0.03500000014901161
			],
			"min":[
				0.7799999713897705,
				-0.03500000014901161,
				-0.03500000014901161
			],
			"type":"VEC3"
		},
		{
			"bufferView":1,
			"componentType":5126,
			"count":96,
			"type":"VEC3"
		},
		{
			"bufferView":2,
			"componentType":5126,
			"count":96,
			"type":"VEC2"
		},
		{
			"bufferView":3,
			"componentType":5121,
			"count":96,
			"type":"VEC4"
		},
		{
			"bufferView":4,
			"componentType":5126,
			"count":96,
			"type":"VEC4"
		},
		{
			"bufferView":5,
			"componentType":5123,
			"count":180,
			"type":"SCALAR"
		},
		{
			"bufferView":6,
			"componentType":5126,
			"count":3,
			"type":"MAT4"
		},
		{
			"bufferView":7,
			"componentType":5126,
			"count":24,
			"max":[
				0.4699999988079071,
				0.017500000074505806,
				-0.05250000208616257
			],
			"min":[
				0.28999999165534973,
				-0.017500000074505806,
				-0.08749999850988388
			],
			"type":"VEC3"
		},
		{
			"bufferView":8,
			"componentType":5126,
			"count":24,
			"type":"VEC3"
		},
		{
			"bufferView":9,
			"componentType":5126,
			"count":24,
			"type":"VEC2"
		},
		{
			"bufferView":10,
			"componentType":5121,
			"count":24,
			"type":"VEC4"
		},
		{
			"bufferView":11,
			"componentType":5126,
			"count":24,
			"type":"VEC4"
		},
		{
			"bufferView":12,
			"componentType":5123,
			"count":36,
			"type":"SCALAR"
		},
		{
			"bufferView":13,
			"componentType":5126,
			"count":24,
			"max":[
				0.009999997913837433,
				0.05999999865889549,
				0.3400000035762787
			],
			"min":[
				-0.10999999940395355,
				-0.05999999865889549,
				0.02000001072883606
			],
			"type":"VEC3"
		},
		{
			"bufferView":14,
			"componentType":5126,
			"count":24,
			"type":"VEC3"
		},
		{
			"bufferView":15,
			"componentType":5126,
			"count":24,
			"type":"VEC2"
		},
		{
			"bufferView":16,
			"componentType":5121,
			"count":24,
			"type":"VEC4"
		},
		{
			"bufferView":17,
			"componentType":5126,
			"count":24,
			"type":"VEC4"
		},
		{
			"bufferView":18,
			"componentType":5126,
			"count":24,
			"max":[
				0.7899999618530273,
				0.06499999761581421,
				0.06499999761581421
			],
			"min":[
				0.16999998688697815,
				-0.06499999761581421,
				-0.06499999761581421
			],
			"type":"VEC3"
		},
		{
			"bufferView":19,
			"componentType":5126,
			"count":24,
			"type":"VEC3"
		},
		{
			"bufferView":20,
			"componentType":5126,
			"count":24,
			"type":"VEC2"
		},
		{
			"bufferView":21,
			"componentType":5121,
			"count":24,
			"type":"VEC4"
		},
		{
			"bufferView":22,
			"componentType":5126,
			"count":24,
			"type":"VEC4"
		},
		{
			"bufferView":23,
			"componentType":5126,
			"count":24,
			"max":[
				0.1599999964237213,
				0.05999999865889549,
				0.38999998569488525
			],
			"min":[
				0,
				-0.05999999865889549,
				0.04999999701976776
			],
			"type":"VEC3"
		},
		{
			"bufferView":24,
			"componentType":5126,
			"count":24,
			"type":"VEC3"
		},
		{
			"bufferView":25,
			"componentType":5126,
			"count":24,
			"type":"VEC2"
		},
		{
			"bufferView":26,
			"componentType":5121,
			"count":24,
			"type":"VEC4"
		},
		{
			"bufferView":27,
			"componentType":5126,
			"count":24,
			"type":"VEC4"
		},
		{
			"bufferView":28,
			"componentType":5126,
			"count":96,
			"max":[
				1.5499999523162842,
				0.05999999865889549,
				0.05999999865889549
			],
			"min":[
				1.4199998378753662,
				-0.05999999865889549,
				-0.05999999865889549
			],
			"type":"VEC3"
		},
		{
			"bufferView":29,
			"componentType":5126,
			"count":96,
			"type":"VEC3"
		},
		{
			"bufferView":30,
			"componentType":5126,
			"count":96,
			"type":"VEC2"
		},
		{
			"bufferView":31,
			"componentType":5121,
			"count":96,
			"type":"VEC4"
		},
		{
			"bufferView":32,
			"componentType":5126,
			"count":96,
			"type":"VEC4"
		},
		{
			"bufferView":33,
			"componentType":5126,
			"count":24,
			"max":[
				0.3199999928474426,
				0.03999999910593033,
				-0.08999999612569809
			],
			"min":[
				0.08000000566244125,
				-0.03999999910593033,
				-0.16999998688697815
			],
			"type":"VEC3"
		},
		{
			"bufferView":34,
			"componentType":5126,
			"count":24,
			"type":"VEC3"
		},
		{
			"bufferView":35,
			"componentType":5126,
			"count":24,
			"type":"VEC2"
		},
		{
			"bufferView":36,
			"componentType":5121,
			"count":24,
			"type":"VEC4"
		},
		{
			"bufferView":37,
			"componentType":5126,
			"count":24,
			"type":"VEC4"
		},
		{
			"bufferView":38,
			"componentType":5126,
			"count":24,
			"max":[
				0.25999999046325684,
				0.07999999821186066,
				0.07999999821186066
			],
			"min":[
				-0.25999999046325684,
				-0.07999999821186066,
				-0.07999999821186066
			],
			"type":"VEC3"
		},
		{
			"bufferView":39,
			"componentType":5126,
			"count":24,
			"type":"VEC3"
		},
		{
			"bufferView":40,
			"componentType":5126,
			"count":24,
			"type":"VEC2"
		},
		{
			"bufferView":41,
			"componentType":5121,
			"count":24,
			"type":"VEC4"
		},
		{
			"bufferView":42,
			"componentType":5126,
			"count":24,
			"type":"VEC4"
		},
		{
			"bufferView":43,
			"componentType":5126,
			"count":24,
			"max":[
				-0.22999998927116394,
				0.07000000029802322,
				0.044999998062849045
			],
			"min":[
				-0.6100000143051147,
				-0.07000000029802322,
				-0.08499999344348907
			],
			"type":"VEC3"
		},
		{
			"bufferView":44,
			"componentType":5126,
			"count":24,
			"type":"VEC3"
		},
		{
			"bufferView":45,
			"componentType":5126,
			"count":24,
			"type":"VEC2"
		},
		{
			"bufferView":46,
			"componentType":5121,
			"count":24,
			"type":"VEC4"
		},
		{
			"bufferView":47,
			"componentType":5126,
			"count":24,
			"type":"VEC4"
		},
		{
			"bufferView":48,
			"componentType":5126,
			"count":19,
			"max":[
				0.75
			],
			"min":[
				0
			],
			"type":"SCALAR"
		},
		{
			"bufferView":49,
			"componentType":5126,
			"count":19,
			"type":"VEC3"
		},
		{
			"bufferView":50,
			"componentType":5126,
			"count":19,
			"type":"VEC4"
		},
		{
			"bufferView":51,
			"componentType":5126,
			"count":2,
			"max":[
				0.75
			],
			"min":[
				0
			],
			"type":"SCALAR"
		},
		{
			"bufferView":52,
			"componentType":5126,
			"count":2,
			"type":"VEC3"
		},
		{
			"bufferView":53,
			"componentType":5126,
			"count":2,
			"type":"VEC3"
		},
		{
			"bufferView":54,
			"componentType":5126,
			"count":2,
			"type":"VEC4"
		},
		{
			"bufferView":55,
			"componentType":5126,
			"count":2,
			"type":"VEC3"
		},
		{
			"bufferView":56,
			"componentType":5126,
			"count":2,
			"type":"VEC3"
		},
		{
			"bufferView":57,
			"componentType":5126,
			"count":2,
			"type":"VEC4"
		},
		{
			"bufferView":58,
			"componentType":5126,
			"count":2,
			"type":"VEC3"
		},
		{
			"bufferView":59,
			"componentType":5126,
			"count":19,
			"type":"VEC3"
		},
		{
			"bufferView":60,
			"componentType":5126,
			"count":19,
			"type":"VEC4"
		},
		{
			"bufferView":61,
			"componentType":5126,
			"count":2,
			"type":"VEC3"
		},
		{
			"bufferView":62,
			"componentType":5126,
			"count":2,
			"type":"VEC3"
		},
		{
			"bufferView":63,
			"componentType":5126,
			"count":2,
			"type":"VEC4"
		},
		{
			"bufferView":64,
			"componentType":5126,
			"count":2,
			"type":"VEC3"
		},
		{
			"bufferView":65,
			"componentType":5126,
			"count":2,
			"type":"VEC3"
		},
		{
			"bufferView":66,
			"componentType":5126,
			"count":2,
			"type":"VEC4"
		},
		{
			"bufferView":67,
			"componentType":5126,
			"count":2,
			"type":"VEC3"
		},
		{
			"bufferView":68,
			"componentType":5126,
			"count":2,
			"max":[
				1.25
			],
			"min":[
				0
			],
			"type":"SCALAR"
		},
		{
			"bufferView":69,
			"componentType":5126,
			"count":2,
			"type":"VEC3"
		},
		{
			"bufferView":70,
			"componentType":5126,
			"count":2,
			"type":"VEC4"
		},
		{
			"bufferView":71,
			"componentType":5126,
			"count":2,
			"type":"VEC3"
		},
		{
			"bufferView":72,
			"componentType":5126,
			"count":2,
			"type":"VEC3"
		},
		{
			"bufferView":73,
			"componentType":5126,
			"count":2,
			"type":"VEC4"
		},
		{
			"bufferView":74,
			"componentType":5126,
			"count":2,
			"type":"VEC3"
		},
		{
			"bufferView":75,
			"componentType":5126,
			"count":2,
			"type":"VEC3"
		},
		{
			"bufferView":76,
			"componentType":5126,
			"count":2,
			"type":"VEC4"
		},
		{
			"bufferView":77,
			"componentType":5126,
			"count":2,
			"type":"VEC3"
		},
		{
			"bufferView":78,
			"componentType":5126,
			"count":55,
			"max":[
				2.25
			],
			"min":[
				0
			],
			"type":"SCALAR"
		},
		{
			"bufferView":79,
			"componentType":5126,
			"count":55,
			"type":"VEC3"
		},
		{
			"bufferView":80,
			"componentType":5126,
			"count":55,
			"type":"VEC4"
		},
		{
			"bufferView":81,
			"componentType":5126,
			"count":2,
			"max":[
				2.25
			],
			"min":[
				0
			],
			"type":"SCALAR"
		},
		{
			"bufferView":82,
			"componentType":5126,
			"count":2,
			"type":"VEC3"
		},
		{
			"bufferView":83,
			"componentType":5126,
			"count":55,
			"type":"VEC3"
		},
		{
			"bufferView":84,
			"componentType":5126,
			"count":2,
			"type":"VEC4"
		},
		{
			"bufferView":85,
			"componentType":5126,
			"count":2,
			"type":"VEC3"
		},
		{
			"bufferView":86,
			"componentType":5126,
			"count":55,
			"type":"VEC3"
		},
		{
			"bufferView":87,
			"componentType":5126,
			"count":2,
			"type":"VEC4"
		},
		{
			"bufferView":88,
			"componentType":5126,
			"count":2,
			"type":"VEC3"
		}
	],
	"bufferViews":[
		{
			"buffer":0,
			"byteLength":1152,
			"byteOffset":0,
			"target":34962
		},
		{
			"buffer":0,
			"byteLength":1152,
			"byteOffset":1152,
			"target":34962
		},
		{
			"buffer":0,
			"byteLength":768,
			"byteOffset":2304,
			"target":34962
		},
		{
			"buffer":0,
			"byteLength":384,
			"byteOffset":3072,
			"target":34962
		},
		{
			"buffer":0,
			"byteLength":1536,
			"byteOffset":3456,
			"target":34962
		},
		{
			"buffer":0,
			"byteLength":360,
			"byteOffset":4992,
			"target":34963
		},
		{
			"buffer":0,
			"byteLength":192,
			"byteOffset":5352
		},
		{
			"buffer":0,
			"byteLength":288,
			"byteOffset":5544,
			"target":34962
		},
		{
			"buffer":0,
			"byteLength":288,
			"byteOffset":5832,
			"target":34962
		},
		{
			"buffer":0,
			"byteLength":192,
			"byteOffset":6120,
			"target":34962
		},
		{
			"buffer":0,
			"byteLength":96,
			"byteOffset":6312,
			"target":34962
		},
		{
			"buffer":0,
			"byteLength":384,
			"byteOffset":6408,
			"target":34962
		},
		{
			"buffer":0,
			"byteLength":72,
			"byteOffset":6792,
			"target":34963
		},
		{
			"buffer":0,
			"byteLength":288,
			"byteOffset":6864,
			"target":34962
		},
		{
			"buffer":0,
			"byteLength":288,
			"byteOffset":7152,
			"target":34962
		},
		{
			"buffer":0,
			"byteLength":192,
			"byteOffset":7440,
			"target":34962
		},
		{
			"buffer":0,
			"byteLength":96,
			"byteOffset":7632,
			"target":34962
		},
		{
			"buffer":0,
			"byteLength":384,
			"byteOffset":7728,
			"target":34962
		},
		{
			"buffer":0,
			"byteLength":288,
			"byteOffset":8112,
			"target":34962
		},
		{
			"buffer":0,
			"byteLength":288,
			"byteOffset":8400,
			"target":34962
		},
		{
			"buffer":0,
			"byteLength":192,
			"byteOffset":8688,
			"target":34962
		},
		{
			"buffer":0,
			"byteLength":96,
			"byteOffset":8880,
			"target":34962
		},
		{
			"buffer":0,
			"byteLength":384,
			"byteOffset":8976,
			"target":34962
		},
		{
			"buffer":0,
			"byteLength":288,
			"byteOffset":9360,
			"target":34962
		},
		{
			"buffer":0,
			"byteLength":288,
			"byteOffset":9648,
			"target":34962
		},
		{
			"buffer":0,
			"byteLength":192,
			"byteOffset":9936,
			"target":34962
		},
		{
			"buffer":0,
			"byteLength":96,
			"byteOffset":10128,
			"target":34962
		},
		{
			"buffer":0,
			"byteLength":384,
			"byteOffset":10224,
			"target":34962
		},
		{
			"buffer":0,
			"byteLength":1152,
			"byteOffset":10608,
			"target":34962
		},
		{
			"buffer":0,
			"byteLength":1152,
			"byteOffset":11760,
			"target":34962
		},
		{
			"buffer":0,
			"byteLength":768,
			"byteOffset":12912,
			"target":34962
		},
		{
			"buffer":0,
			"byteLength":384,
			"byteOffset":13680,
			"target":34962
		},
		{
			"buffer":0,
			"byteLength":1536,
			"byteOffset":14064,
			"target":34962
		},
		{
			"buffer":0,
			"byteLength":288,
			"byteOffset":15600,
			"target":34962
		},
		{
			"buffer":0,
			"byteLength":288,
			"byteOffset":15888,
			"target":34962
		},
		{
			"buffer":0,
			"byteLength":192,
			"byteOffset":16176,
			"target":34962
		},
		{
			"buffer":0,
			"byteLength":96,
			"byteOffset":16368,
			"target":34962
		},
		{
			"buffer":0,
			"byteLength":384,
			"byteOffset":16464,
			"target":34962
		},
		{
			"buffer":0,
			"byteLength":288,
			"byteOffset":16848,
			"target":34962
		},
		{
			"buffer":0,
			"byteLength":288,
			"byteOffset":17136,
			"target":34962
		},
		{
			"buffer":0,
			"byteLength":192,
			"byteOffset":17424,
			"target":34962
		},
		{
			"buffer":0,
			"byteLength":96,
			"byteOffset":17616,
			"target":34962
		},
		{
			"buffer":0,
			"byteLength":384,
			"byteOffset":17712,
			"target":34962
		},
		{
			"buffer":0,
			"byteLength":288,
			"byteOffset":18096,
			"target":34962
		},
		{
			"buffer":0,
			"byteLength":288,
			"byteOffset":18384,
			"target":34962
		},
		{
			"buffer":0,
			"byteLength":192,
			"byteOffset":18672,
			"target":34962
		},
		{
			"buffer":0,
			"byteLength":96,
			"byteOffset":18864,
			"target":34962
		},
		{
			"buffer":0,
			"byteLength":384,
			"byteOffset":18960,
			"target":34962
		},
		{
			"buffer":0,
			"byteLength":76,
			"byteOffset":19344
		},
		{
			"buffer":0,
			"byteLength":228,
			"byteOffset":19420
		},
		{
			"buffer":0,
			"byteLength":304,
			"byteOffset":19648
		},
		{
			"buffer":0,
			"byteLength":8,
			"byteOffset":19952
		},
		{
			"buffer":0,
			"byteLength":24,
			"byteOffset":19960
		},
		{
			"buffer":0,
			"byteLength":24,
			"byteOffset":19984
		},
		{
			"buffer":0,
			"byteLength":32,
			"byteOffset":20008
		},
		{
			"buffer":0,
			"byteLength":24,
			"byteOffset":20040
		},
		{
			"buffer":0,
			"byteLength":24,
			"byteOffset":20064
		},
		{
			"buffer":0,
			"byteLength":32,
			"byteOffset":20088
		},
		{
			"buffer":0,
			"byteLength":24,
			"byteOffset":20120
		},
		{
			"buffer":0,
			"byteLength":228,
			"byteOffset":20144
		},
		{
			"buffer":0,
			"byteLength":304,
			"byteOffset":20372
		},
		{
			"buffer":0,
			"byteLength":24,
			"byteOffset":20676
		},
		{
			"buffer":0,
			"byteLength":24,
			"byteOffset":20700
		},
		{
			"buffer":0,
			"byteLength":32,
			"byteOffset":20724
		},
		{
			"buffer":0,
			"byteLength":24,
			"byteOffset":20756
		},
		{
			"buffer":0,
			"byteLength":24,
			"byteOffset":20780
		},
		{
			"buffer":0,
			"byteLength":32,
			"byteOffset":20804
		},
		{
			"buffer":0,
			"byteLength":24,
			"byteOffset":20836
		},
		{
			"buffer":0,
			"byteLength":8,
			"byteOffset":20860
		},
		{
			"buffer":0,
			"byteLength":24,
			"byteOffset":20868
		},
		{
			"buffer":0,
			"byteLength":32,
			"byteOffset":20892
		},
		{
			"buffer":0,
			"byteLength":24,
			"byteOffset":20924
		},
		{
			"buffer":0,
			"byteLength":24,
			"byteOffset":20948
		},
		{
			"buffer":0,
			"byteLength":32,
			"byteOffset":20972
		},
		{
			"buffer":0,
			"byteLength":24,
			"byteOffset":21004
		},
		{
			"buffer":0,
			"byteLength":24,
			"byteOffset":21028
		},
		{
			"buffer":0,
			"byteLength":32,
			"byteOffset":21052
		},
		{
			"buffer":0,
			"byteLength":24,
			"byteOffset":21084
		},
		{
			"buffer":0,
			"byteLength":220,
			"byteOffset":21108
		},
		{
			"buffer":0,
			"byteLength":660,
			"byteOffset":21328
		},
		{
			"buffer":0,
			"byteLength":880,
			"byteOffset":21988
		},
		{
			"buffer":0,
			"byteLength":8,
			"byteOffset":22868
		},
		{
			"buffer":0,
			"byteLength":24,
			"byteOffset":22876
		},
		{
			"buffer":0,
			"byteLength":660,
			"byteOffset":22900
		},
		{
			"buffer":0,
			"byteLength":32,
			"byteOffset":23560
		},
		{
			"buffer":0,
			"byteLength":24,
			"byteOffset":23592
		},
		{
			"buffer":0,
			"byteLength":660,
			"byteOffset":23616
		},
		{
			"buffer":0,
			"byteLength":32,
			"byteOffset":24276
		},
		{
			"buffer":0,
			"byteLength":24,
			"byteOffset":24308
		}
	],
	"buffers":[
		{
			"byteLength":24332,
			"uri":"assault_rifle.bin"
		}
	]
}
