{
	"asset":{
		"generator":"Khronos glTF Blender I/O v5.1.20",
		"version":"2.0"
	},
	"scene":0,
	"scenes":[
		{
			"name":"Scene",
			"nodes":[
				0
			]
		}
	],
	"nodes":[
		{
			"mesh":0,
			"name":"struct_1"
		}
	],
	"materials":[
		{
			"doubleSided":true,
			"name":"RedBase",
			"pbrMetallicRoughness":{
				"baseColorFactor":[
					0.6499999761581421,
					0.15000000596046448,
					0.10000000149011612,
					1
				],
				"metallicFactor":0.11999999731779099,
				"roughnessFactor":0.550000011920929
			}
		},
		{
			"doubleSided":true,
			"name":"Neutral",
			"pbrMetallicRoughness":{
				"baseColorFactor":[
					0.4000000059604645,
					0.41999998688697815,
					0.2800000011920929,
					1
				],
				"metallicFactor":0.07999999821186066,
				"roughnessFactor":0.6000000238418579
			}
		},
		{
			"doubleSided":true,
			"name":"RedAccent",
			"pbrMetallicRoughness":{
				"baseColorFactor":[
					0.800000011920929,
					0.25,
					0.15000000596046448,
					1
				],
				"metallicFactor":0.30000001192092896,
				"roughnessFactor":0.3499999940395355
			}
		},
		{
			"doubleSided":true,
			"name":"BlueBase",
			"pbrMetallicRoughness":{
				"baseColorFactor":[
					0.11999999731779099,
					0.30000001192092896,
					0.6499999761581421,
					1
				],
				"metallicFactor":0.11999999731779099,
				"roughnessFactor":0.550000011920929
			}
		},
		{
			"doubleSided":true,
			"name":"BlueAccent",
			"pbrMetallicRoughness":{
				"baseColorFactor":[
					0.20000000298023224,
					0.4000000059604645,
					0.75,
					1
				],
				"metallicFactor":0.30000001192092896,
				"roughnessFactor":0.3499999940395355
			}
		},
		{
			"doubleSided":true,
			"name":"Rock",
			"pbrMetallicRoughness":{
				"baseColorFactor":[
					0.30000001192092896,
					0.2800000011920929,
					0.25,
					1
				],
				"metallicFactor":0.019999999552965164,
				"roughnessFactor":0.8999999761581421
			}
		},
		{
			"doubleSided":true,
			"name":"Cliff",
			"pbrMetallicRoughness":{
				"baseColorFactor":[
					0.25,
					0.27000001072883606,
					0.20000000298023224,
					1
				],
				"metallicFactor":0.05000000074505806,
				"roughnessFactor":0.75
			}
		}
	],
	"meshes":[
		{
			"name":"struct_1",
			"primitives":[
				{
					"attributes":{
						"POSITION":0,
						"NORMAL":1
					},
					"indices":2,
					"material":0
				},
				{
					"attributes":{
						"POSITION":3,
						"NORMAL":4
					},
					"indices":5,
					"material":1
				},
				{
					"attributes":{
						"POSITION":6,
						"NORMAL":7
					},
					"indices":8,
					"material":2
				},
				{
					"attributes":{
						"POSITION":9,
						"NORMAL":10
					},
					"indices":2,
					"material":3
				},
				{
					"attributes":{
						"POSITION":11,
						"NORMAL":12
					},
					"indices":8,
					"material":4
				},
				{
					"attributes":{
						"POSITION":13,
						"NORMAL":14
					},
					"indices":15,
					"material":5
				},
				{
					"attributes":{
						"POSITION":16,
						"NORMAL":17
					},
					"indices":5,
					"material":6
				}
			]
		}
	],
	"accessors":[
		{
			"bufferView":0,
			"componentType":5126,
			"count":240,
			"max":[
				-16.799999237060547,
				8,
				0
			],
			"min":[
				-33,
				-17,
				-2.5
			],
			"type":"VEC3"
		},
		{
			"bufferView":1,
			"componentType":5126,
			"count":240,
			"type":"VEC3"
		},
		{
			"bufferView":2,
			"componentType":5123,
			"count":360,
			"type":"SCALAR"
		},
		{
			"bufferView":3,
			"componentType":5126,
			"count":96,
			"max":[
				40,
				20,
				0.5
			],
			"min":[
				-40,
				-20,
				-0.800000011920929
			],
			"type":"VEC3"
		},
		{
			"bufferView":4,
			"componentType":5126,
			"count":96,
			"type":"VEC3"
		},
		{
			"bufferView":5,
			"componentType":5123,
			"count":144,
			"type":"SCALAR"
		},
		{
			"bufferView":6,
			"componentType":5126,
			"count":144,
			"max":[
				-18.200000762939453,
				7.679999828338623,
				-1.940000057220459
			],
			"min":[
				-32.91999816894531,
				-16.940000534057617,
				-2.5
			],
			"type":"VEC3"
		},
		{
			"bufferView":7,
			"componentType":5126,
			"count":144,
			"type":"VEC3"
		},
		{
			"bufferView":8,
			"componentType":5123,
			"count":216,
			"type":"SCALAR"
		},
		{
			"bufferView":9,
			"componentType":5126,
			"count":240,
			"max":[
				33,
				17,
				0
			],
			"min":[
				16.799999237060547,
				-8,
				-2.5
			],
			"type":"VEC3"
		},
		{
			"bufferView":10,
			"componentType":5126,
			"count":240,
			"type":"VEC3"
		},
		{
			"bufferView":11,
			"componentType":5126,
			"count":144,
			"max":[
				32.91999816894531,
				16.940000534057617,
				-1.940000057220459
			],
			"min":[
				18.200000762939453,
				-7.679999828338623,
				-2.5
			],
			"type":"VEC3"
		},
		{
			"bufferView":12,
			"componentType":5126,
			"count":144,
			"type":"VEC3"
		},
		{
			"bufferView":13,
			"componentType":5126,
			"count":264,
			"max":[
				5.952247142791748,
				3.952247142791748,
				0.2999999523162842
			],
			"min":[
				-5.498610496520996,
				-3.549999952316284,
				-1.7999999523162842
			],
			"type":"VEC3"
		},
		{
			"bufferView":14,
			"componentType":5126,
			"count":264,
			"type":"VEC3"
		},
		{
			"bufferView":15,
			"componentType":5123,
			"count":276,
			"type":"SCALAR"
		},
		{
			"bufferView":16,
			"componentType":5126,
			"count":96,
			"max":[
				38,
				18,
				0
			],
			"min":[
				-38,
				-18,
				-4
			],
			"type":"VEC3"
		},
		{
			"bufferView":17,
			"componentType":5126,
			"count":96,
			"type":"VEC3"
		}
	],
	"bufferViews":[
		{
			"buffer":0,
			"byteLength":2880,
			"byteOffset":0,
			"target":34962
		},
		{
			"buffer":0,
			"byteLength":2880,
			"byteOffset":2880,
			"target":34962
		},
		{
			"buffer":0,
			"byteLength":720,
			"byteOffset":5760,
			"target":34963
		},
		{
			"buffer":0,
			"byteLength":1152,
			"byteOffset":6480,
			"target":34962
		},
		{
			"buffer":0,
			"byteLength":1152,
			"byteOffset":7632,
			"target":34962
		},
		{
			"buffer":0,
			"byteLength":288,
			"byteOffset":8784,
			"target":34963
		},
		{
			"buffer":0,
			"byteLength":1728,
			"byteOffset":9072,
			"target":34962
		},
		{
			"buffer":0,
			"byteLength":1728,
			"byteOffset":10800,
			"target":34962
		},
		{
			"buffer":0,
			"byteLength":432,
			"byteOffset":12528,
			"target":34963
		},
		{
			"buffer":0,
			"byteLength":2880,
			"byteOffset":12960,
			"target":34962
		},
		{
			"buffer":0,
			"byteLength":2880,
			"byteOffset":15840,
			"target":34962
		},
		{
			"buffer":0,
			"byteLength":1728,
			"byteOffset":18720,
			"target":34962
		},
		{
			"buffer":0,
			"byteLength":1728,
			"byteOffset":20448,
			"target":34962
		},
		{
			"buffer":0,
			"byteLength":3168,
			"byteOffset":22176,
			"target":34962
		},
		{
			"buffer":0,
			"byteLength":3168,
			"byteOffset":25344,
			"target":34962
		},
		{
			"buffer":0,
			"byteLength":552,
			"byteOffset":28512,
			"target":34963
		},
		{
			"buffer":0,
			"byteLength":1152,
			"byteOffset":29064,
			"target":34962
		},
		{
			"buffer":0,
			"byteLength":1152,
			"byteOffset":30216,
			"target":34962
		}
	],
	"buffers":[
		{
			"byteLength":31368,
			"uri":"blood_gulch.bin"
		}
	]
}
