{
  "asset": {
    "version": "2.0",
    "generator": "ahamkara viewmodel_rifle"
  },
  "scene": 0,
  "scenes": [
    {
      "nodes": [
        0
      ]
    }
  ],
  "nodes": [
    {
      "mesh": 0
    }
  ],
  "meshes": [
    {
      "primitives": [
        {
          "attributes": {
            "POSITION": 0,
            "NORMAL": 1
          },
          "indices": 2,
          "material": 0
        }
      ]
    }
  ],
  "materials": [
    {
      "pbrMetallicRoughness": {
        "baseColorFactor": [
          0.12,
          0.13,
          0.15,
          1
        ],
        "metallicFactor": 0.15,
        "roughnessFactor": 0.75
      }
    }
  ],
  "buffers": [
    {
      "uri": "viewmodel_rifle.bin",
      "byteLength": 5040
    }
  ],
  "bufferViews": [
    {
      "buffer": 0,
      "byteOffset": 0,
      "byteLength": 2016
    },
    {
      "buffer": 0,
      "byteOffset": 2016,
      "byteLength": 2016
    },
    {
      "buffer": 0,
      "byteOffset": 4032,
      "byteLength": 1008
    }
  ],
  "accessors": [
    {
      "bufferView": 0,
      "componentType": 5126,
      "count": 168,
      "type": "VEC3",
      "min": [
        -0.42,
        -0.28,
        -0.08
      ],
      "max": [
        1.12,
        0.24,
        0.08
      ]
    },
    {
      "bufferView": 1,
      "componentType": 5126,
      "count": 168,
      "type": "VEC3"
    },
    {
      "bufferView": 2,
      "componentType": 5125,
      "count": 252,
      "type": "SCALAR"
    }
  ]
}
