{
	"asset":{
		"generator":"Khronos glTF Blender I/O v5.1.20",
		"version":"2.0"
	},
	"scene":0,
	"scenes":[
		{
			"name":"Scene",
			"nodes":[
				0
			]
		}
	],
	"nodes":[
		{
			"mesh":0,
			"name":"viewmodel_rocket_launcher"
		}
	],
	"materials":[
		{
			"doubleSided":true,
			"name":"Body",
			"pbrMetallicRoughness":{
				"baseColorFactor":[
					0.11999999731779099,
					0.12999999523162842,
					0.14000000059604645,
					1
				],
				"metallicFactor":0.8500000238418579,
				"roughnessFactor":0.550000011920929
			}
		},
		{
			"doubleSided":true,
			"name":"Grip",
			"pbrMetallicRoughness":{
				"baseColorFactor":[
					0.05999999865889549,
					0.05999999865889549,
					0.05999999865889549,
					1
				],
				"metallicFactor":0.019999999552965164,
				"roughnessFactor":0.8999999761581421
			}
		},
		{
			"doubleSided":true,
			"name":"Accent",
			"pbrMetallicRoughness":{
				"baseColorFactor":[
					0.8500000238418579,
					0.25,
					0.10000000149011612,
					1
				],
				"metallicFactor":0.8999999761581421,
				"roughnessFactor":0.30000001192092896
			}
		}
	],
	"meshes":[
		{
			"name":"viewmodel_rocket_launcher_mesh",
			"primitives":[
				{
					"attributes":{
						"POSITION":0,
						"NORMAL":1
					},
					"indices":2,
					"material":0
				},
				{
					"attributes":{
						"POSITION":3,
						"NORMAL":4
					},
					"indices":5,
					"material":1
				},
				{
					"attributes":{
						"POSITION":6,
						"NORMAL":7
					},
					"indices":8,
					"material":2
				}
			]
		}
	],
	"accessors":[
		{
			"bufferView":0,
			"componentType":5126,
			"count":756,
			"max":[
				0.9599999785423279,
				1,
				1
			],
			"min":[
				-1,
				-1,
				-0.17499999701976776
			],
			"type":"VEC3"
		},
		{
			"bufferView":1,
			"componentType":5126,
			"count":756,
			"type":"VEC3"
		},
		{
			"bufferView":2,
			"componentType":5123,
			"count":1296,
			"type":"SCALAR"
		},
		{
			"bufferView":3,
			"componentType":5126,
			"count":44,
			"max":[
				0.320000022649765,
				0.06499999761581421,
				0.04999999701976776
			],
			"min":[
				-0.4599999785423279,
				-0.06499999761581421,
				-0.162302166223526
			],
			"type":"VEC3"
		},
		{
			"bufferView":4,
			"componentType":5126,
			"count":44,
			"type":"VEC3"
		},
		{
			"bufferView":5,
			"componentType":5123,
			"count":84,
			"type":"SCALAR"
		},
		{
			"bufferView":6,
			"componentType":5126,
			"count":304,
			"max":[
				0.9570633769035339,
				1,
				1
			],
			"min":[
				-1,
				-1,
				-0.17499999701976776
			],
			"type":"VEC3"
		},
		{
			"bufferView":7,
			"componentType":5126,
			"count":304,
			"type":"VEC3"
		},
		{
			"bufferView":8,
			"componentType":5123,
			"count":588,
			"type":"SCALAR"
		}
	],
	"bufferViews":[
		{
			"buffer":0,
			"byteLength":9072,
			"byteOffset":0,
			"target":34962
		},
		{
			"buffer":0,
			"byteLength":9072,
			"byteOffset":9072,
			"target":34962
		},
		{
			"buffer":0,
			"byteLength":2592,
			"byteOffset":18144,
			"target":34963
		},
		{
			"buffer":0,
			"byteLength":528,
			"byteOffset":20736,
			"target":34962
		},
		{
			"buffer":0,
			"byteLength":528,
			"byteOffset":21264,
			"target":34962
		},
		{
			"buffer":0,
			"byteLength":168,
			"byteOffset":21792,
			"target":34963
		},
		{
			"buffer":0,
			"byteLength":3648,
			"byteOffset":21960,
			"target":34962
		},
		{
			"buffer":0,
			"byteLength":3648,
			"byteOffset":25608,
			"target":34962
		},
		{
			"buffer":0,
			"byteLength":1176,
			"byteOffset":29256,
			"target":34963
		}
	],
	"buffers":[
		{
			"byteLength":30432,
			"uri":"viewmodel_rocket_launcher.bin"
		}
	]
}
