{
	"asset":{
		"generator":"Khronos glTF Blender I/O v5.1.20",
		"version":"2.0"
	},
	"scene":0,
	"scenes":[
		{
			"name":"Scene",
			"nodes":[
				0
			]
		}
	],
	"nodes":[
		{
			"mesh":0,
			"name":"viewmodel_pistol"
		}
	],
	"materials":[
		{
			"doubleSided":true,
			"name":"Body",
			"pbrMetallicRoughness":{
				"baseColorFactor":[
					0.07000000029802322,
					0.07999999821186066,
					0.09000000357627869,
					1
				],
				"metallicFactor":0.9200000166893005,
				"roughnessFactor":0.3499999940395355
			}
		},
		{
			"doubleSided":true,
			"name":"Grip",
			"pbrMetallicRoughness":{
				"baseColorFactor":[
					0.05000000074505806,
					0.05000000074505806,
					0.05999999865889549,
					1
				],
				"metallicFactor":0.029999999329447746,
				"roughnessFactor":0.8500000238418579
			}
		},
		{
			"doubleSided":true,
			"name":"Accent",
			"pbrMetallicRoughness":{
				"baseColorFactor":[
					0.8799999952316284,
					0.8799999952316284,
					0.8999999761581421,
					1
				],
				"metallicFactor":0.9599999785423279,
				"roughnessFactor":0.20000000298023224
			}
		}
	],
	"meshes":[
		{
			"name":"viewmodel_pistol_mesh",
			"primitives":[
				{
					"attributes":{
						"POSITION":0,
						"NORMAL":1
					},
					"indices":2,
					"material":0
				},
				{
					"attributes":{
						"POSITION":3,
						"NORMAL":4
					},
					"indices":5,
					"material":1
				},
				{
					"attributes":{
						"POSITION":6,
						"NORMAL":7
					},
					"indices":8,
					"material":2
				}
			]
		}
	],
	"accessors":[
		{
			"bufferView":0,
			"componentType":5126,
			"count":264,
			"max":[
				0.23999999463558197,
				1,
				1
			],
			"min":[
				-1,
				-1,
				-0.07999999821186066
			],
			"type":"VEC3"
		},
		{
			"bufferView":1,
			"componentType":5126,
			"count":264,
			"type":"VEC3"
		},
		{
			"bufferView":2,
			"componentType":5123,
			"count":420,
			"type":"SCALAR"
		},
		{
			"bufferView":3,
			"componentType":5126,
			"count":16,
			"max":[
				0.17599999904632568,
				1,
				1
			],
			"min":[
				-1,
				-1,
				-0.0560000017285347
			],
			"type":"VEC3"
		},
		{
			"bufferView":4,
			"componentType":5126,
			"count":16,
			"type":"VEC3"
		},
		{
			"bufferView":5,
			"componentType":5123,
			"count":36,
			"type":"SCALAR"
		},
		{
			"bufferView":6,
			"componentType":5126,
			"count":248,
			"max":[
				0.2199999988079071,
				0.03500000014901161,
				0.19979511201381683
			],
			"min":[
				-0.1059056967496872,
				-0.03500000014901161,
				-0.07499999552965164
			],
			"type":"VEC3"
		},
		{
			"bufferView":7,
			"componentType":5126,
			"count":248,
			"type":"VEC3"
		},
		{
			"bufferView":8,
			"componentType":5123,
			"count":384,
			"type":"SCALAR"
		}
	],
	"bufferViews":[
		{
			"buffer":0,
			"byteLength":3168,
			"byteOffset":0,
			"target":34962
		},
		{
			"buffer":0,
			"byteLength":3168,
			"byteOffset":3168,
			"target":34962
		},
		{
			"buffer":0,
			"byteLength":840,
			"byteOffset":6336,
			"target":34963
		},
		{
			"buffer":0,
			"byteLength":192,
			"byteOffset":7176,
			"target":34962
		},
		{
			"buffer":0,
			"byteLength":192,
			"byteOffset":7368,
			"target":34962
		},
		{
			"buffer":0,
			"byteLength":72,
			"byteOffset":7560,
			"target":34963
		},
		{
			"buffer":0,
			"byteLength":2976,
			"byteOffset":7632,
			"target":34962
		},
		{
			"buffer":0,
			"byteLength":2976,
			"byteOffset":10608,
			"target":34962
		},
		{
			"buffer":0,
			"byteLength":768,
			"byteOffset":13584,
			"target":34963
		}
	],
	"buffers":[
		{
			"byteLength":14352,
			"uri":"viewmodel_pistol.bin"
		}
	]
}
