{
	"asset":{
		"generator":"Khronos glTF Blender I/O v5.1.20",
		"version":"2.0"
	},
	"scene":0,
	"scenes":[
		{
			"name":"Scene",
			"nodes":[
				0
			]
		}
	],
	"nodes":[
		{
			"mesh":0,
			"name":"viewmodel_shotgun"
		}
	],
	"materials":[
		{
			"doubleSided":true,
			"name":"Body",
			"pbrMetallicRoughness":{
				"baseColorFactor":[
					0.07999999821186066,
					0.09000000357627869,
					0.10000000149011612,
					1
				],
				"metallicFactor":0.8999999761581421,
				"roughnessFactor":0.4000000059604645
			}
		},
		{
			"doubleSided":true,
			"name":"Wood",
			"pbrMetallicRoughness":{
				"baseColorFactor":[
					0.2800000011920929,
					0.17000000178813934,
					0.07999999821186066,
					1
				],
				"metallicFactor":0.019999999552965164,
				"roughnessFactor":0.8500000238418579
			}
		},
		{
			"doubleSided":true,
			"name":"Accent",
			"pbrMetallicRoughness":{
				"baseColorFactor":[
					0.550000011920929,
					0.550000011920929,
					0.5799999833106995,
					1
				],
				"metallicFactor":0.949999988079071,
				"roughnessFactor":0.25
			}
		}
	],
	"meshes":[
		{
			"name":"viewmodel_shotgun_mesh",
			"primitives":[
				{
					"attributes":{
						"POSITION":0,
						"NORMAL":1
					},
					"indices":2,
					"material":0
				},
				{
					"attributes":{
						"POSITION":3,
						"NORMAL":4
					},
					"indices":5,
					"material":1
				},
				{
					"attributes":{
						"POSITION":6,
						"NORMAL":7
					},
					"indices":8,
					"material":2
				}
			]
		}
	],
	"accessors":[
		{
			"bufferView":0,
			"componentType":5126,
			"count":464,
			"max":[
				0.8640000224113464,
				1,
				1
			],
			"min":[
				-1,
				-1,
				-0.13500000536441803
			],
			"type":"VEC3"
		},
		{
			"bufferView":1,
			"componentType":5126,
			"count":464,
			"type":"VEC3"
		},
		{
			"bufferView":2,
			"componentType":5123,
			"count":750,
			"type":"SCALAR"
		},
		{
			"bufferView":3,
			"componentType":5126,
			"count":60,
			"max":[
				0.3952169120311737,
				1,
				1
			],
			"min":[
				-1,
				-1,
				-0.09163679927587509
			],
			"type":"VEC3"
		},
		{
			"bufferView":4,
			"componentType":5126,
			"count":60,
			"type":"VEC3"
		},
		{
			"bufferView":5,
			"componentType":5123,
			"count":108,
			"type":"SCALAR"
		},
		{
			"bufferView":6,
			"componentType":5126,
			"count":268,
			"max":[
				0.8640000224113464,
				0.30000001192092896,
				0.08171804994344711
			],
			"min":[
				-0.3799999952316284,
				-0.30000001192092896,
				-0.06599999964237213
			],
			"type":"VEC3"
		},
		{
			"bufferView":7,
			"componentType":5126,
			"count":268,
			"type":"VEC3"
		},
		{
			"bufferView":8,
			"componentType":5123,
			"count":498,
			"type":"SCALAR"
		}
	],
	"bufferViews":[
		{
			"buffer":0,
			"byteLength":5568,
			"byteOffset":0,
			"target":34962
		},
		{
			"buffer":0,
			"byteLength":5568,
			"byteOffset":5568,
			"target":34962
		},
		{
			"buffer":0,
			"byteLength":1500,
			"byteOffset":11136,
			"target":34963
		},
		{
			"buffer":0,
			"byteLength":720,
			"byteOffset":12636,
			"target":34962
		},
		{
			"buffer":0,
			"byteLength":720,
			"byteOffset":13356,
			"target":34962
		},
		{
			"buffer":0,
			"byteLength":216,
			"byteOffset":14076,
			"target":34963
		},
		{
			"buffer":0,
			"byteLength":3216,
			"byteOffset":14292,
			"target":34962
		},
		{
			"buffer":0,
			"byteLength":3216,
			"byteOffset":17508,
			"target":34962
		},
		{
			"buffer":0,
			"byteLength":996,
			"byteOffset":20724,
			"target":34963
		}
	],
	"buffers":[
		{
			"byteLength":21720,
			"uri":"viewmodel_shotgun.bin"
		}
	]
}
