{
	"asset":{
		"generator":"Khronos glTF Blender I/O v5.1.20",
		"version":"2.0"
	},
	"scene":0,
	"scenes":[
		{
			"name":"Scene",
			"nodes":[
				0
			]
		}
	],
	"nodes":[
		{
			"mesh":0,
			"name":"viewmodel_ar15"
		}
	],
	"materials":[
		{
			"doubleSided":true,
			"name":"Body",
			"pbrMetallicRoughness":{
				"baseColorFactor":[
					0.10000000149011612,
					0.10999999940395355,
					0.11999999731779099,
					1
				],
				"metallicFactor":0.8799999952316284,
				"roughnessFactor":0.47999998927116394
			}
		},
		{
			"doubleSided":true,
			"name":"Grip",
			"pbrMetallicRoughness":{
				"baseColorFactor":[
					0.05999999865889549,
					0.05999999865889549,
					0.07000000029802322,
					1
				],
				"metallicFactor":0.03999999910593033,
				"roughnessFactor":0.8199999928474426
			}
		},
		{
			"doubleSided":true,
			"name":"Accent",
			"pbrMetallicRoughness":{
				"baseColorFactor":[
					0.7799999713897705,
					0.5199999809265137,
					0.15000000596046448,
					1
				],
				"metallicFactor":0.949999988079071,
				"roughnessFactor":0.2800000011920929
			}
		}
	],
	"meshes":[
		{
			"name":"viewmodel_ar15_mesh",
			"primitives":[
				{
					"attributes":{
						"POSITION":0,
						"NORMAL":1
					},
					"indices":2,
					"material":0
				},
				{
					"attributes":{
						"POSITION":3,
						"NORMAL":4
					},
					"indices":5,
					"material":1
				},
				{
					"attributes":{
						"POSITION":6,
						"NORMAL":7
					},
					"indices":8,
					"material":2
				}
			]
		}
	],
	"accessors":[
		{
			"bufferView":0,
			"componentType":5126,
			"count":836,
			"max":[
				0.9600000381469727,
				1,
				1
			],
			"min":[
				-1,
				-1,
				-0.12999999523162842
			],
			"type":"VEC3"
		},
		{
			"bufferView":1,
			"componentType":5126,
			"count":836,
			"type":"VEC3"
		},
		{
			"bufferView":2,
			"componentType":5123,
			"count":1392,
			"type":"SCALAR"
		},
		{
			"bufferView":3,
			"componentType":5126,
			"count":60,
			"max":[
				0.006631765514612198,
				1,
				1
			],
			"min":[
				-1,
				-1,
				-0.08500000089406967
			],
			"type":"VEC3"
		},
		{
			"bufferView":4,
			"componentType":5126,
			"count":60,
			"type":"VEC3"
		},
		{
			"bufferView":5,
			"componentType":5123,
			"count":108,
			"type":"SCALAR"
		},
		{
			"bufferView":6,
			"componentType":5126,
			"count":244,
			"max":[
				0.9520000219345093,
				1,
				1
			],
			"min":[
				-1,
				-1,
				-0.13499999046325684
			],
			"type":"VEC3"
		},
		{
			"bufferView":7,
			"componentType":5126,
			"count":244,
			"type":"VEC3"
		},
		{
			"bufferView":8,
			"componentType":5123,
			"count":420,
			"type":"SCALAR"
		}
	],
	"bufferViews":[
		{
			"buffer":0,
			"byteLength":10032,
			"byteOffset":0,
			"target":34962
		},
		{
			"buffer":0,
			"byteLength":10032,
			"byteOffset":10032,
			"target":34962
		},
		{
			"buffer":0,
			"byteLength":2784,
			"byteOffset":20064,
			"target":34963
		},
		{
			"buffer":0,
			"byteLength":720,
			"byteOffset":22848,
			"target":34962
		},
		{
			"buffer":0,
			"byteLength":720,
			"byteOffset":23568,
			"target":34962
		},
		{
			"buffer":0,
			"byteLength":216,
			"byteOffset":24288,
			"target":34963
		},
		{
			"buffer":0,
			"byteLength":2928,
			"byteOffset":24504,
			"target":34962
		},
		{
			"buffer":0,
			"byteLength":2928,
			"byteOffset":27432,
			"target":34962
		},
		{
			"buffer":0,
			"byteLength":840,
			"byteOffset":30360,
			"target":34963
		}
	],
	"buffers":[
		{
			"byteLength":31200,
			"uri":"viewmodel_ar15.bin"
		}
	]
}
